<mxfile host="app.diagrams.net" agent="Mozilla/5.0 (Macintosh; Intel Mac OS X 10_15_7) AppleWebKit/537.36 (KHTML, like Gecko) Chrome/131.0.0.0 Safari/537.36" version="26.0.5">
  <diagram id="Ht1M8jgEwFfnCIfOTk4-" name="Page-1">
    <mxGraphModel dx="1157" dy="1437" grid="1" gridSize="10" guides="1" tooltips="1" connect="1" arrows="1" fold="1" page="1" pageScale="1" pageWidth="1169" pageHeight="827" math="0" shadow="0">
      <root>
        <mxCell id="0" />
        <mxCell id="1" parent="0" />
        <mxCell id="mE7N8rD3R5cEEVttfX8r-1" value="" style="image;aspect=fixed;html=1;points=[];align=center;fontSize=12;image=img/lib/azure2/general/Browser.svg;" vertex="1" parent="1">
          <mxGeometry x="40" y="290" width="65" height="52" as="geometry" />
        </mxCell>
        <mxCell id="mE7N8rD3R5cEEVttfX8r-2" value="Browser" style="text;html=1;align=center;verticalAlign=middle;whiteSpace=wrap;rounded=0;" vertex="1" parent="1">
          <mxGeometry x="45" y="260" width="60" height="30" as="geometry" />
        </mxCell>
        <mxCell id="UEzPUAAOIrF-is8g5C7q-74" value="AWS Cloud" style="points=[[0,0],[0.25,0],[0.5,0],[0.75,0],[1,0],[1,0.25],[1,0.5],[1,0.75],[1,1],[0.75,1],[0.5,1],[0.25,1],[0,1],[0,0.75],[0,0.5],[0,0.25]];outlineConnect=0;gradientColor=none;html=1;whiteSpace=wrap;fontSize=12;fontStyle=0;shape=mxgraph.aws4.group;grIcon=mxgraph.aws4.group_aws_cloud_alt;strokeColor=#232F3E;fillColor=none;verticalAlign=top;align=left;spacingLeft=30;fontColor=#232F3E;dashed=0;labelBackgroundColor=#ffffff;container=1;pointerEvents=0;collapsible=0;recursiveResize=0;" parent="1" vertex="1">
          <mxGeometry x="170" y="20" width="1093.75" height="1010" as="geometry" />
        </mxCell>
        <mxCell id="mE7N8rD3R5cEEVttfX8r-3" value="" style="sketch=0;points=[[0,0,0],[0.25,0,0],[0.5,0,0],[0.75,0,0],[1,0,0],[0,1,0],[0.25,1,0],[0.5,1,0],[0.75,1,0],[1,1,0],[0,0.25,0],[0,0.5,0],[0,0.75,0],[1,0.25,0],[1,0.5,0],[1,0.75,0]];outlineConnect=0;fontColor=#232F3E;fillColor=#8C4FFF;strokeColor=#ffffff;dashed=0;verticalLabelPosition=bottom;verticalAlign=top;align=center;html=1;fontSize=12;fontStyle=0;aspect=fixed;shape=mxgraph.aws4.resourceIcon;resIcon=mxgraph.aws4.route_53;" vertex="1" parent="UEzPUAAOIrF-is8g5C7q-74">
          <mxGeometry x="90" y="260" width="65.5" height="65.5" as="geometry" />
        </mxCell>
        <mxCell id="mE7N8rD3R5cEEVttfX8r-4" value="DNS" style="text;html=1;align=center;verticalAlign=middle;whiteSpace=wrap;rounded=0;" vertex="1" parent="UEzPUAAOIrF-is8g5C7q-74">
          <mxGeometry x="93" y="323" width="60" height="30" as="geometry" />
        </mxCell>
        <mxCell id="mE7N8rD3R5cEEVttfX8r-6" value="" style="sketch=0;outlineConnect=0;fontColor=#232F3E;gradientColor=none;fillColor=#8C4FFF;strokeColor=none;dashed=0;verticalLabelPosition=bottom;verticalAlign=top;align=center;html=1;fontSize=12;fontStyle=0;aspect=fixed;pointerEvents=1;shape=mxgraph.aws4.application_load_balancer;" vertex="1" parent="UEzPUAAOIrF-is8g5C7q-74">
          <mxGeometry x="244" y="262" width="66" height="66" as="geometry" />
        </mxCell>
        <mxCell id="mE7N8rD3R5cEEVttfX8r-7" value="ALB" style="text;html=1;align=center;verticalAlign=middle;whiteSpace=wrap;rounded=0;" vertex="1" parent="UEzPUAAOIrF-is8g5C7q-74">
          <mxGeometry x="250" y="326" width="60" height="30" as="geometry" />
        </mxCell>
        <mxCell id="mE7N8rD3R5cEEVttfX8r-10" value="EC2 instance contents" style="points=[[0,0],[0.25,0],[0.5,0],[0.75,0],[1,0],[1,0.25],[1,0.5],[1,0.75],[1,1],[0.75,1],[0.5,1],[0.25,1],[0,1],[0,0.75],[0,0.5],[0,0.25]];outlineConnect=0;gradientColor=none;html=1;whiteSpace=wrap;fontSize=12;fontStyle=0;container=1;pointerEvents=0;collapsible=0;recursiveResize=0;shape=mxgraph.aws4.group;grIcon=mxgraph.aws4.group_ec2_instance_contents;strokeColor=#D86613;fillColor=none;verticalAlign=top;align=left;spacingLeft=30;fontColor=#D86613;dashed=0;" vertex="1" parent="UEzPUAAOIrF-is8g5C7q-74">
          <mxGeometry x="330" y="120" width="320" height="380" as="geometry" />
        </mxCell>
        <mxCell id="mE7N8rD3R5cEEVttfX8r-26" value="" style="strokeWidth=2;html=1;shape=mxgraph.flowchart.annotation_2;align=left;labelPosition=right;pointerEvents=1;" vertex="1" parent="mE7N8rD3R5cEEVttfX8r-10">
          <mxGeometry x="-20" y="136" width="130" height="100" as="geometry" />
        </mxCell>
        <mxCell id="mE7N8rD3R5cEEVttfX8r-11" value="EC2 instance contents" style="points=[[0,0],[0.25,0],[0.5,0],[0.75,0],[1,0],[1,0.25],[1,0.5],[1,0.75],[1,1],[0.75,1],[0.5,1],[0.25,1],[0,1],[0,0.75],[0,0.5],[0,0.25]];outlineConnect=0;gradientColor=none;html=1;whiteSpace=wrap;fontSize=12;fontStyle=0;container=1;pointerEvents=0;collapsible=0;recursiveResize=0;shape=mxgraph.aws4.group;grIcon=mxgraph.aws4.group_ec2_instance_contents;strokeColor=#D86613;fillColor=none;verticalAlign=top;align=left;spacingLeft=30;fontColor=#D86613;dashed=0;" vertex="1" parent="mE7N8rD3R5cEEVttfX8r-10">
          <mxGeometry x="30" y="30" width="240" height="290" as="geometry" />
        </mxCell>
        <mxCell id="mE7N8rD3R5cEEVttfX8r-22" value="" style="outlineConnect=0;dashed=0;verticalLabelPosition=bottom;verticalAlign=top;align=center;html=1;shape=mxgraph.aws3.ec2_compute_container;fillColor=#F58534;gradientColor=none;" vertex="1" parent="mE7N8rD3R5cEEVttfX8r-11">
          <mxGeometry x="90" y="190" width="60" height="34.5" as="geometry" />
        </mxCell>
        <mxCell id="mE7N8rD3R5cEEVttfX8r-12" value="" style="outlineConnect=0;dashed=0;verticalLabelPosition=bottom;verticalAlign=top;align=center;html=1;shape=mxgraph.aws3.ec2_compute_container;fillColor=#F58534;gradientColor=none;" vertex="1" parent="mE7N8rD3R5cEEVttfX8r-11">
          <mxGeometry x="90" y="90" width="60" height="34.5" as="geometry" />
        </mxCell>
        <mxCell id="mE7N8rD3R5cEEVttfX8r-29" value="app&lt;span style=&quot;color: rgba(0, 0, 0, 0); font-family: monospace; font-size: 0px; text-align: start; text-wrap-mode: nowrap;&quot;&gt;%3CmxGraphModel%3E%3Croot%3E%3CmxCell%20id%3D%220%22%2F%3E%3CmxCell%20id%3D%221%22%20parent%3D%220%22%2F%3E%3CmxCell%20id%3D%222%22%20value%3D%22%22%20style%3D%22outlineConnect%3D0%3Bdashed%3D0%3BverticalLabelPosition%3Dbottom%3BverticalAlign%3Dtop%3Balign%3Dcenter%3Bhtml%3D1%3Bshape%3Dmxgraph.aws3.ec2_compute_container%3BfillColor%3D%23F58534%3BgradientColor%3Dnone%3B%22%20vertex%3D%221%22%20parent%3D%221%22%3E%3CmxGeometry%20x%3D%22610%22%20y%3D%22250%22%20width%3D%2260%22%20height%3D%2234.5%22%20as%3D%22geometry%22%2F%3E%3C%2FmxCell%3E%3C%2Froot%3E%3C%2FmxGraphModel%3E&lt;/span&gt;" style="text;html=1;align=center;verticalAlign=middle;whiteSpace=wrap;rounded=0;" vertex="1" parent="mE7N8rD3R5cEEVttfX8r-11">
          <mxGeometry x="30" y="80" width="60" height="30" as="geometry" />
        </mxCell>
        <mxCell id="mE7N8rD3R5cEEVttfX8r-30" value="api" style="text;html=1;align=center;verticalAlign=middle;whiteSpace=wrap;rounded=0;" vertex="1" parent="mE7N8rD3R5cEEVttfX8r-11">
          <mxGeometry x="24" y="200" width="60" height="30" as="geometry" />
        </mxCell>
        <mxCell id="mE7N8rD3R5cEEVttfX8r-40" value="Frontend&lt;span style=&quot;color: rgba(0, 0, 0, 0); font-family: monospace; font-size: 0px; text-align: start; text-wrap-mode: nowrap;&quot;&gt;%3CmxGraphModel%3E%3Croot%3E%3CmxCell%20id%3D%220%22%2F%3E%3CmxCell%20id%3D%221%22%20parent%3D%220%22%2F%3E%3CmxCell%20id%3D%222%22%20value%3D%22%22%20style%3D%22outlineConnect%3D0%3Bdashed%3D0%3BverticalLabelPosition%3Dbottom%3BverticalAlign%3Dtop%3Balign%3Dcenter%3Bhtml%3D1%3Bshape%3Dmxgraph.aws3.ec2_compute_container%3BfillColor%3D%23F58534%3BgradientColor%3Dnone%3B%22%20vertex%3D%221%22%20parent%3D%221%22%3E%3CmxGeometry%20x%3D%22610%22%20y%3D%22250%22%20width%3D%2260%22%20height%3D%2234.5%22%20as%3D%22geometry%22%2F%3E%3C%2FmxCell%3E%3C%2Froot%3E%3C%2FmxGraphModel%3E&lt;/span&gt;" style="text;html=1;align=center;verticalAlign=middle;whiteSpace=wrap;rounded=0;" vertex="1" parent="mE7N8rD3R5cEEVttfX8r-11">
          <mxGeometry x="140" y="120" width="60" height="30" as="geometry" />
        </mxCell>
        <mxCell id="mE7N8rD3R5cEEVttfX8r-41" value="Backend" style="text;html=1;align=center;verticalAlign=middle;whiteSpace=wrap;rounded=0;" vertex="1" parent="mE7N8rD3R5cEEVttfX8r-11">
          <mxGeometry x="140" y="224.5" width="60" height="30" as="geometry" />
        </mxCell>
        <mxCell id="mE7N8rD3R5cEEVttfX8r-47" value="" style="edgeStyle=none;rounded=0;html=1;entryX=0.5;entryY=0;jettySize=auto;orthogonalLoop=1;strokeColor=#404040;strokeWidth=2;fontColor=#000000;jumpStyle=none;endArrow=block;endFill=1;startArrow=block;startFill=1;exitX=0.5;exitY=1;exitDx=0;exitDy=0;exitPerimeter=0;entryDx=0;entryDy=0;entryPerimeter=0;" edge="1" parent="mE7N8rD3R5cEEVttfX8r-11" source="mE7N8rD3R5cEEVttfX8r-12" target="mE7N8rD3R5cEEVttfX8r-22">
          <mxGeometry width="100" relative="1" as="geometry">
            <mxPoint x="-20" y="410" as="sourcePoint" />
            <mxPoint x="80" y="410" as="targetPoint" />
          </mxGeometry>
        </mxCell>
        <mxCell id="mE7N8rD3R5cEEVttfX8r-48" value="Rest API" style="edgeLabel;html=1;align=center;verticalAlign=middle;resizable=0;points=[];" vertex="1" connectable="0" parent="mE7N8rD3R5cEEVttfX8r-47">
          <mxGeometry x="-0.028" y="-3" relative="1" as="geometry">
            <mxPoint as="offset" />
          </mxGeometry>
        </mxCell>
        <mxCell id="mE7N8rD3R5cEEVttfX8r-32" style="edgeStyle=orthogonalEdgeStyle;rounded=0;orthogonalLoop=1;jettySize=auto;html=1;exitX=1;exitY=0;exitDx=0;exitDy=0;exitPerimeter=0;entryX=0;entryY=0.5;entryDx=0;entryDy=0;entryPerimeter=0;" edge="1" parent="mE7N8rD3R5cEEVttfX8r-10" source="mE7N8rD3R5cEEVttfX8r-26" target="mE7N8rD3R5cEEVttfX8r-12">
          <mxGeometry relative="1" as="geometry" />
        </mxCell>
        <mxCell id="mE7N8rD3R5cEEVttfX8r-33" style="edgeStyle=orthogonalEdgeStyle;rounded=0;orthogonalLoop=1;jettySize=auto;html=1;exitX=1;exitY=1;exitDx=0;exitDy=0;exitPerimeter=0;entryX=0;entryY=0.5;entryDx=0;entryDy=0;entryPerimeter=0;" edge="1" parent="mE7N8rD3R5cEEVttfX8r-10" source="mE7N8rD3R5cEEVttfX8r-26" target="mE7N8rD3R5cEEVttfX8r-22">
          <mxGeometry relative="1" as="geometry" />
        </mxCell>
        <mxCell id="mE7N8rD3R5cEEVttfX8r-37" value="" style="endArrow=classic;html=1;rounded=0;" edge="1" parent="UEzPUAAOIrF-is8g5C7q-74" target="mE7N8rD3R5cEEVttfX8r-6">
          <mxGeometry width="50" height="50" relative="1" as="geometry">
            <mxPoint x="160" y="295" as="sourcePoint" />
            <mxPoint x="205.5" y="250" as="targetPoint" />
          </mxGeometry>
        </mxCell>
        <mxCell id="mE7N8rD3R5cEEVttfX8r-45" value="" style="rounded=0;whiteSpace=wrap;html=1;fillColor=none;strokeColor=#d3d3d3;strokeWidth=2;" vertex="1" parent="UEzPUAAOIrF-is8g5C7q-74">
          <mxGeometry x="290" y="560" width="380" height="190" as="geometry" />
        </mxCell>
        <mxCell id="mE7N8rD3R5cEEVttfX8r-46" value="" style="edgeStyle=none;rounded=0;html=1;jettySize=auto;orthogonalLoop=1;strokeColor=#404040;strokeWidth=2;fontColor=#000000;jumpStyle=none;endArrow=block;endFill=1;startArrow=block;startFill=1;exitX=0.5;exitY=1;exitDx=0;exitDy=0;exitPerimeter=0;" edge="1" parent="UEzPUAAOIrF-is8g5C7q-74" source="mE7N8rD3R5cEEVttfX8r-22">
          <mxGeometry width="100" relative="1" as="geometry">
            <mxPoint x="340" y="560" as="sourcePoint" />
            <mxPoint x="480" y="550" as="targetPoint" />
          </mxGeometry>
        </mxCell>
        <mxCell id="mE7N8rD3R5cEEVttfX8r-49" value="&lt;b&gt;Serverless Avatar Image Prosessing&lt;/b&gt;" style="text;html=1;align=center;verticalAlign=middle;whiteSpace=wrap;rounded=0;" vertex="1" parent="UEzPUAAOIrF-is8g5C7q-74">
          <mxGeometry x="290" y="560" width="220" height="30" as="geometry" />
        </mxCell>
        <mxCell id="mE7N8rD3R5cEEVttfX8r-50" value="" style="sketch=0;outlineConnect=0;fontColor=#232F3E;gradientColor=none;fillColor=#7AA116;strokeColor=none;dashed=0;verticalLabelPosition=bottom;verticalAlign=top;align=center;html=1;fontSize=12;fontStyle=0;aspect=fixed;pointerEvents=1;shape=mxgraph.aws4.bucket;" vertex="1" parent="UEzPUAAOIrF-is8g5C7q-74">
          <mxGeometry x="330" y="631.6" width="45" height="46.8" as="geometry" />
        </mxCell>
        <mxCell id="mE7N8rD3R5cEEVttfX8r-51" value="" style="outlineConnect=0;dashed=0;verticalLabelPosition=bottom;verticalAlign=top;align=center;html=1;shape=mxgraph.aws3.lambda_function;fillColor=#F58534;gradientColor=none;" vertex="1" parent="UEzPUAAOIrF-is8g5C7q-74">
          <mxGeometry x="570" y="600" width="49" height="52" as="geometry" />
        </mxCell>
        <mxCell id="mE7N8rD3R5cEEVttfX8r-52" value="Process Image" style="text;html=1;align=center;verticalAlign=middle;whiteSpace=wrap;rounded=0;" vertex="1" parent="UEzPUAAOIrF-is8g5C7q-74">
          <mxGeometry x="540" y="580" width="100" height="30" as="geometry" />
        </mxCell>
        <mxCell id="mE7N8rD3R5cEEVttfX8r-53" value="PUT / uploads" style="text;html=1;align=center;verticalAlign=middle;whiteSpace=wrap;rounded=0;" vertex="1" parent="UEzPUAAOIrF-is8g5C7q-74">
          <mxGeometry x="410" y="590" width="90" height="30" as="geometry" />
        </mxCell>
        <mxCell id="mE7N8rD3R5cEEVttfX8r-54" value="PUT / avatars" style="text;html=1;align=center;verticalAlign=middle;whiteSpace=wrap;rounded=0;" vertex="1" parent="UEzPUAAOIrF-is8g5C7q-74">
          <mxGeometry x="414" y="690" width="90" height="30" as="geometry" />
        </mxCell>
        <mxCell id="mE7N8rD3R5cEEVttfX8r-55" value="Webhook" style="text;html=1;align=center;verticalAlign=middle;whiteSpace=wrap;rounded=0;" vertex="1" parent="UEzPUAAOIrF-is8g5C7q-74">
          <mxGeometry x="559" y="690" width="60" height="30" as="geometry" />
        </mxCell>
        <mxCell id="mE7N8rD3R5cEEVttfX8r-56" value="Amazon RDS" style="sketch=0;outlineConnect=0;fontColor=#232F3E;gradientColor=none;strokeColor=#ffffff;fillColor=#232F3E;dashed=0;verticalLabelPosition=middle;verticalAlign=bottom;align=center;html=1;whiteSpace=wrap;fontSize=10;fontStyle=1;spacing=3;shape=mxgraph.aws4.productIcon;prIcon=mxgraph.aws4.rds;" vertex="1" parent="UEzPUAAOIrF-is8g5C7q-74">
          <mxGeometry x="670" y="311.25" width="60" height="92" as="geometry" />
        </mxCell>
        <mxCell id="mE7N8rD3R5cEEVttfX8r-57" value="" style="endArrow=classic;startArrow=classic;html=1;rounded=0;exitX=1;exitY=0.5;exitDx=0;exitDy=0;exitPerimeter=0;" edge="1" parent="UEzPUAAOIrF-is8g5C7q-74" source="mE7N8rD3R5cEEVttfX8r-22" target="mE7N8rD3R5cEEVttfX8r-56">
          <mxGeometry width="50" height="50" relative="1" as="geometry">
            <mxPoint x="370" y="580" as="sourcePoint" />
            <mxPoint x="410" y="540" as="targetPoint" />
          </mxGeometry>
        </mxCell>
        <mxCell id="mE7N8rD3R5cEEVttfX8r-58" value="Primary Queries" style="edgeLabel;html=1;align=center;verticalAlign=middle;resizable=0;points=[];" vertex="1" connectable="0" parent="mE7N8rD3R5cEEVttfX8r-57">
          <mxGeometry x="-0.1796" y="4" relative="1" as="geometry">
            <mxPoint x="6" y="-3" as="offset" />
          </mxGeometry>
        </mxCell>
        <mxCell id="mE7N8rD3R5cEEVttfX8r-59" value="Amazon DynamoDB" style="sketch=0;outlineConnect=0;fontColor=#232F3E;gradientColor=none;strokeColor=#ffffff;fillColor=#232F3E;dashed=0;verticalLabelPosition=middle;verticalAlign=bottom;align=center;html=1;whiteSpace=wrap;fontSize=10;fontStyle=1;spacing=3;shape=mxgraph.aws4.productIcon;prIcon=mxgraph.aws4.dynamodb;" vertex="1" parent="UEzPUAAOIrF-is8g5C7q-74">
          <mxGeometry x="800" y="180" width="60" height="100" as="geometry" />
        </mxCell>
        <mxCell id="mE7N8rD3R5cEEVttfX8r-60" value="" style="endArrow=classic;startArrow=classic;html=1;rounded=0;exitX=1;exitY=0;exitDx=0;exitDy=0;exitPerimeter=0;" edge="1" parent="UEzPUAAOIrF-is8g5C7q-74" source="mE7N8rD3R5cEEVttfX8r-74" target="mE7N8rD3R5cEEVttfX8r-59">
          <mxGeometry width="50" height="50" relative="1" as="geometry">
            <mxPoint x="370" y="580" as="sourcePoint" />
            <mxPoint x="420" y="530" as="targetPoint" />
          </mxGeometry>
        </mxCell>
        <mxCell id="mE7N8rD3R5cEEVttfX8r-61" value="DIrect Message Queries" style="edgeLabel;html=1;align=center;verticalAlign=middle;resizable=0;points=[];" vertex="1" connectable="0" parent="mE7N8rD3R5cEEVttfX8r-60">
          <mxGeometry x="0.0729" relative="1" as="geometry">
            <mxPoint x="-173" y="66" as="offset" />
          </mxGeometry>
        </mxCell>
        <mxCell id="mE7N8rD3R5cEEVttfX8r-62" value="" style="sketch=0;points=[[0,0,0],[0.25,0,0],[0.5,0,0],[0.75,0,0],[1,0,0],[0,1,0],[0.25,1,0],[0.5,1,0],[0.75,1,0],[1,1,0],[0,0.25,0],[0,0.5,0],[0,0.75,0],[1,0.25,0],[1,0.5,0],[1,0.75,0]];outlineConnect=0;fontColor=#232F3E;fillColor=#E7157B;strokeColor=#ffffff;dashed=0;verticalLabelPosition=bottom;verticalAlign=top;align=center;html=1;fontSize=12;fontStyle=0;aspect=fixed;shape=mxgraph.aws4.resourceIcon;resIcon=mxgraph.aws4.appsync;" vertex="1" parent="UEzPUAAOIrF-is8g5C7q-74">
          <mxGeometry x="796" y="40" width="68" height="68" as="geometry" />
        </mxCell>
        <mxCell id="mE7N8rD3R5cEEVttfX8r-63" value="AWS AppSync" style="text;html=1;align=center;verticalAlign=middle;whiteSpace=wrap;rounded=0;" vertex="1" parent="UEzPUAAOIrF-is8g5C7q-74">
          <mxGeometry x="775" y="108" width="110" height="30" as="geometry" />
        </mxCell>
        <mxCell id="mE7N8rD3R5cEEVttfX8r-67" style="edgeStyle=orthogonalEdgeStyle;rounded=0;orthogonalLoop=1;jettySize=auto;html=1;exitX=0;exitY=0;exitDx=0;exitDy=0;" edge="1" parent="UEzPUAAOIrF-is8g5C7q-74" target="mE7N8rD3R5cEEVttfX8r-59">
          <mxGeometry relative="1" as="geometry">
            <mxPoint x="870" y="238" as="sourcePoint" />
            <mxPoint x="864" y="205" as="targetPoint" />
          </mxGeometry>
        </mxCell>
        <mxCell id="mE7N8rD3R5cEEVttfX8r-71" style="edgeStyle=orthogonalEdgeStyle;rounded=0;orthogonalLoop=1;jettySize=auto;html=1;exitX=0;exitY=0;exitDx=0;exitDy=0;" edge="1" parent="UEzPUAAOIrF-is8g5C7q-74" source="mE7N8rD3R5cEEVttfX8r-68">
          <mxGeometry relative="1" as="geometry">
            <mxPoint x="870" y="240" as="targetPoint" />
          </mxGeometry>
        </mxCell>
        <mxCell id="mE7N8rD3R5cEEVttfX8r-68" value="" style="shape=partialRectangle;whiteSpace=wrap;html=1;bottom=1;right=1;left=1;top=0;fillColor=none;routingCenterX=-0.5;rotation=-90;" vertex="1" parent="UEzPUAAOIrF-is8g5C7q-74">
          <mxGeometry x="840" y="131" width="167" height="61" as="geometry" />
        </mxCell>
        <mxCell id="mE7N8rD3R5cEEVttfX8r-69" style="edgeStyle=orthogonalEdgeStyle;rounded=0;orthogonalLoop=1;jettySize=auto;html=1;exitX=1;exitY=0;exitDx=0;exitDy=0;entryX=1;entryY=0.5;entryDx=0;entryDy=0;entryPerimeter=0;" edge="1" parent="UEzPUAAOIrF-is8g5C7q-74" source="mE7N8rD3R5cEEVttfX8r-68" target="mE7N8rD3R5cEEVttfX8r-62">
          <mxGeometry relative="1" as="geometry" />
        </mxCell>
        <mxCell id="mE7N8rD3R5cEEVttfX8r-77" style="edgeStyle=orthogonalEdgeStyle;rounded=0;orthogonalLoop=1;jettySize=auto;html=1;exitX=0;exitY=0;exitDx=0;exitDy=0;" edge="1" parent="UEzPUAAOIrF-is8g5C7q-74" source="mE7N8rD3R5cEEVttfX8r-72" target="mE7N8rD3R5cEEVttfX8r-56">
          <mxGeometry relative="1" as="geometry">
            <Array as="points">
              <mxPoint x="909" y="357" />
            </Array>
          </mxGeometry>
        </mxCell>
        <mxCell id="mE7N8rD3R5cEEVttfX8r-72" value="" style="shape=partialRectangle;whiteSpace=wrap;html=1;bottom=1;right=1;left=1;top=0;fillColor=none;routingCenterX=-0.5;rotation=-90;" vertex="1" parent="UEzPUAAOIrF-is8g5C7q-74">
          <mxGeometry x="784.25" y="183.75" width="309.5" height="60" as="geometry" />
        </mxCell>
        <mxCell id="mE7N8rD3R5cEEVttfX8r-73" style="edgeStyle=orthogonalEdgeStyle;rounded=0;orthogonalLoop=1;jettySize=auto;html=1;exitX=1;exitY=0;exitDx=0;exitDy=0;entryX=1;entryY=0.25;entryDx=0;entryDy=0;entryPerimeter=0;" edge="1" parent="UEzPUAAOIrF-is8g5C7q-74" source="mE7N8rD3R5cEEVttfX8r-72" target="mE7N8rD3R5cEEVttfX8r-62">
          <mxGeometry relative="1" as="geometry">
            <Array as="points">
              <mxPoint x="909" y="57" />
            </Array>
          </mxGeometry>
        </mxCell>
        <mxCell id="mE7N8rD3R5cEEVttfX8r-75" value="" style="endArrow=classic;startArrow=classic;html=1;rounded=0;exitX=1;exitY=0;exitDx=0;exitDy=0;exitPerimeter=0;" edge="1" parent="UEzPUAAOIrF-is8g5C7q-74" source="mE7N8rD3R5cEEVttfX8r-22" target="mE7N8rD3R5cEEVttfX8r-74">
          <mxGeometry width="50" height="50" relative="1" as="geometry">
            <mxPoint x="680" y="360" as="sourcePoint" />
            <mxPoint x="970" y="260" as="targetPoint" />
          </mxGeometry>
        </mxCell>
        <mxCell id="mE7N8rD3R5cEEVttfX8r-74" value="" style="ellipse;shape=doubleEllipse;whiteSpace=wrap;html=1;aspect=fixed;" vertex="1" parent="UEzPUAAOIrF-is8g5C7q-74">
          <mxGeometry x="744.25" y="234.5" width="40" height="40" as="geometry" />
        </mxCell>
        <mxCell id="mE7N8rD3R5cEEVttfX8r-78" value="VPC" style="sketch=0;outlineConnect=0;gradientColor=none;html=1;whiteSpace=wrap;fontSize=12;fontStyle=0;shape=mxgraph.aws4.group;grIcon=mxgraph.aws4.group_vpc;strokeColor=#879196;fillColor=none;verticalAlign=top;align=left;spacingLeft=30;fontColor=#879196;dashed=0;" vertex="1" parent="UEzPUAAOIrF-is8g5C7q-74">
          <mxGeometry x="210" y="95" width="530" height="430" as="geometry" />
        </mxCell>
        <mxCell id="mE7N8rD3R5cEEVttfX8r-36" value="" style="endArrow=classic;html=1;rounded=0;entryX=0;entryY=0.5;entryDx=0;entryDy=0;entryPerimeter=0;" edge="1" parent="1" target="mE7N8rD3R5cEEVttfX8r-3">
          <mxGeometry width="50" height="50" relative="1" as="geometry">
            <mxPoint x="100" y="313" as="sourcePoint" />
            <mxPoint x="150" y="270" as="targetPoint" />
          </mxGeometry>
        </mxCell>
      </root>
    </mxGraphModel>
  </diagram>
</mxfile>
